<?xml version="1.0" encoding="UTF-8"?> <svg xmlns="http://www.w3.org/2000/svg" xmlns:xlink="http://www.w3.org/1999/xlink" version="1.1" width="512" height="512" x="0" y="0" viewBox="0 0 512 512" style="enable-background:new 0 0 512 512" xml:space="preserve"><g><path d="M426.791 404.392c4.265-22.134-3.971-43.499-12.422-63.594-.776-1.847-2.401-3.776-4.684-3.566-19.615 1.805-50.681 7.043-64.067-11.643-9.919-13.845-10.927-33.838-10.34-50.252a4.9 4.9 0 0 0-.274-1.816 49.925 49.925 0 0 0 5.763-1.935c15.433-6.308 25.277-20.541 28.378-36.636 4.265-22.134-3.971-43.499-12.422-63.594-.776-1.847-2.401-3.776-4.684-3.566-20.97 1.93-60.2 6.161-71.435-17.954-6.151-13.201-5.619-27.976-5.106-42.19a4.898 4.898 0 0 0-.273-1.82 49.925 49.925 0 0 0 5.763-1.935c15.433-6.308 25.277-20.541 28.379-36.636 4.265-22.134-3.971-43.499-12.422-63.594-.776-1.847-2.401-3.776-4.684-3.566-12.282 1.13-24.62 1.359-36.947 1.37-8.135.008-24.392-3.469-31.671.264-7.079 3.631-11.942 19.574-14.466 26.56-3.455 9.563-5.844 19.789-5.541 30.012.527 17.756 9.287 33.347 25.188 41.682 4.809 2.521 10.039 4.496 15.456 5.831 7.908 1.95-3.096 35.692-5.369 39.74-6.289 11.2-22.86 22.703-35.659 24.166-11.93 1.363-26.431-6.146-37.836-.297-7.079 3.631-11.942 19.574-14.466 26.561-3.455 9.563-5.844 19.789-5.541 30.012.527 17.757 9.287 33.347 25.188 41.682 4.809 2.521 10.04 4.496 15.456 5.831 2.641.651 1.349 18.191 1.042 20.492-1.008 7.555-3.62 14.784-7.608 21.274-8.488 13.816-28.017 23.312-43.735 23.326-8.135.008-24.392-3.469-31.671.264-7.079 3.631-11.942 19.574-14.467 26.561-3.455 9.563-5.844 19.789-5.541 30.012.527 17.756 9.287 33.347 25.188 41.682 4.809 2.521 10.04 4.496 15.456 5.831 5.522 24.122-4.281 47.173-25.256 60.261-3.75 2.341-2.493 9.056 2.375 8.77 11.819-.696 23.77.233 35.628-.029 11.873-.263 23.727-.973 35.553-2.054 4.23-.386 6.937-6.493 2.376-8.775-21.141-10.579-20.19-36.069-19.459-56.342a4.898 4.898 0 0 0-.273-1.82 49.925 49.925 0 0 0 5.763-1.935c15.433-6.308 25.277-20.541 28.378-36.636 4.158-21.577-3.565-42.423-11.785-62.074 6.929.099 13.871.346 20.781.194a497.694 497.694 0 0 0 20.729-.916c-5.29 5.947-9.025 18.003-11.131 23.831-3.455 9.563-5.844 19.789-5.541 30.012.526 17.756 9.287 33.347 25.188 41.682 4.81 2.521 10.04 4.496 15.456 5.831 5.522 24.122-4.281 47.173-25.256 60.261-3.75 2.341-2.493 9.056 2.375 8.77 11.819-.696 23.77.233 35.628-.029 11.874-.263 23.727-.973 35.553-2.054 4.229-.386 6.937-6.493 2.376-8.775-21.141-10.579-20.19-36.069-19.459-56.342a4.898 4.898 0 0 0-.273-1.82 49.925 49.925 0 0 0 5.763-1.935c15.433-6.308 25.277-20.541 28.378-36.636 4.157-21.573-3.561-42.414-11.78-62.062 6.669.105 13.348.329 19.997.182a497.404 497.404 0 0 0 20.937-.93c-5.296 5.942-9.035 18.013-11.143 23.845-3.455 9.563-5.844 19.789-5.541 30.012.527 17.756 9.287 33.347 25.188 41.682 4.809 2.521 10.04 4.496 15.456 5.831 5.522 24.122-4.281 47.173-25.255 60.261-3.75 2.341-2.493 9.056 2.375 8.77 11.819-.696 23.77.233 35.628-.029 11.873-.263 23.727-.973 35.553-2.054 4.229-.386 6.937-6.493 2.376-8.775-21.141-10.579-20.19-36.069-19.459-56.342a4.898 4.898 0 0 0-.273-1.82 49.925 49.925 0 0 0 5.763-1.935c15.44-6.307 25.284-20.54 28.385-36.635zm-67.333-169.47c-1.904 8.421-5.927 16.533-12.743 22.054-7.617 6.169-17.701 7.438-27.175 6.916-18.283-1.008-38.551-8.572-44.422-27.559-2.456-7.942-2.562-16.26-1.242-24.523 5.892-3.01 11.715-4.678 18.947-4.068 10.616.896 20.399 6.033 30.499 9.013 12.228 3.607 27.011 3.286 36.4-5.497 1.34 7.825 1.525 15.752-.264 23.664zm-142.459 38.599a49.925 49.925 0 0 0 5.763-1.935c15.433-6.308 25.277-20.541 28.378-36.636 4.03-20.916-3.103-41.144-11.031-60.264 5.645.111 11.293.254 16.919.13 7.247-.16 14.484-.506 21.714-.982-4.583 6.315-7.864 16.829-9.787 22.15-3.455 9.563-5.844 19.789-5.541 30.012.527 17.757 9.287 33.347 25.188 41.682 4.809 2.521 10.04 4.496 15.456 5.831 5.676 1.419-.789 29.46-2.184 33.021-3.003 7.67-8.145 16.951-14.116 22.818-2.338 2.297-5.307 4.007-8.667 5.236-12.739 4.66-31.087 2.397-41.841-1.074-21.391-6.906-20.62-40.521-19.979-58.172a4.851 4.851 0 0 0-.272-1.817zm68.418-95.09c20.922 2.115 42.49.749 63.485-.708 3.053 7.478 6.152 15.243 8.418 23.168-10.309 17.427-35.534 6.855-49.999 2.724-8.557-2.444-22.028-4.66-31.527-.627 2.341-8.583 5.901-16.935 9.623-24.557zM225.639 10.736c20.922 2.115 42.489.749 63.485-.707 3.053 7.478 6.152 15.243 8.418 23.167-10.309 17.427-35.534 6.855-49.999 2.724-8.557-2.444-22.028-4.66-31.527-.627 2.341-8.583 5.901-16.935 9.623-24.557zM215.34 68.638c-2.456-7.942-2.562-16.26-1.242-24.523 5.892-3.01 11.715-4.679 18.947-4.068 10.616.896 20.399 6.033 30.499 9.013 12.228 3.607 27.011 3.286 36.4-5.497 1.34 7.827 1.525 15.754-.264 23.665-1.904 8.421-5.927 16.533-12.743 22.054-7.617 6.169-17.701 7.438-27.175 6.916-18.283-1.009-38.551-8.573-44.422-27.56zm35.339 38.432c5.014.742 10.103.91 15.105.447-.003.045-.017.083-.019.129-.885 19.026.063 42.719 13.888 56.899a498.302 498.302 0 0 1-21.475 1.324c-7.364.286-14.977.74-22.503.634 16.585-14.38 22.806-38.59 15.004-59.433zm-83.267 71.361c20.922 2.115 42.489.749 63.485-.708 3.053 7.478 6.152 15.243 8.418 23.168-10.309 17.427-35.534 6.855-49.999 2.724-8.557-2.444-22.028-4.66-31.527-.627 2.341-8.583 5.9-16.935 9.623-24.557zm-10.3 57.901c-2.456-7.942-2.562-16.26-1.242-24.523 5.892-3.01 11.715-4.678 18.947-4.068 10.616.896 20.399 6.033 30.499 9.013 12.228 3.607 27.011 3.286 36.4-5.497 1.34 7.827 1.525 15.754-.264 23.665-1.904 8.421-5.927 16.533-12.743 22.054-7.617 6.169-17.701 7.438-27.175 6.916-18.283-1.009-38.55-8.572-44.422-27.56zm-51.035 111.54c20.922 2.115 42.489.749 63.485-.707 3.053 7.478 6.152 15.243 8.418 23.168-10.309 17.427-35.534 6.855-49.999 2.724-8.557-2.444-22.028-4.66-31.527-.627 2.341-8.583 5.9-16.936 9.623-24.558zm54.013 153.809a498.203 498.203 0 0 1-21.475 1.324c-7.364.286-14.977.74-22.503.634 16.585-14.38 22.807-38.59 15.004-59.433 5.014.742 10.103.91 15.105.447-.003.045-.016.083-.019.129-.885 19.026.063 42.719 13.888 56.899zm20.292-120.983c1.34 7.827 1.525 15.754-.264 23.665-1.904 8.421-5.927 16.533-12.743 22.054-7.617 6.169-17.701 7.438-27.175 6.916-18.283-1.008-38.551-8.572-44.422-27.559-2.456-7.942-2.562-16.26-1.242-24.523 5.892-3.01 11.715-4.679 18.947-4.068 10.616.896 20.399 6.033 30.499 9.013 12.228 3.607 27.011 3.285 36.4-5.498zm19.569-47.134c-7.364.286-14.977.739-22.503.634 16.585-14.38 22.806-38.59 15.004-59.433 5.014.742 10.103.91 15.105.447-.003.045-.016.083-.019.129-.885 19.026.063 42.719 13.888 56.898-7.148.587-14.306 1.047-21.475 1.325zm24.91 14.308c20.922 2.115 42.49.749 63.485-.707 3.053 7.478 6.152 15.243 8.418 23.168-10.309 17.427-35.534 6.855-49.999 2.724-8.557-2.444-22.028-4.66-31.527-.627 2.34-8.583 5.9-16.936 9.623-24.558zm54.013 153.809a498.302 498.302 0 0 1-21.475 1.324c-7.364.286-14.977.74-22.503.634 16.585-14.38 22.807-38.59 15.004-59.433 5.014.742 10.103.91 15.105.447-.003.045-.016.083-.019.129-.885 19.026.063 42.719 13.888 56.899zm20.292-120.983c1.34 7.827 1.525 15.754-.264 23.665-1.904 8.421-5.927 16.533-12.743 22.054-7.617 6.169-17.701 7.438-27.175 6.916-18.283-1.008-38.55-8.572-44.422-27.559-2.456-7.942-2.562-16.26-1.242-24.523 5.892-3.01 11.715-4.679 18.947-4.068 10.616.896 20.399 6.033 30.499 9.013 12.227 3.607 27.011 3.285 36.4-5.498zm18.79-47.134c-7.364.286-14.977.739-22.503.634 16.585-14.38 22.806-38.59 15.004-59.433 5.014.742 10.103.91 15.105.447-.003.045-.016.083-.019.129-.885 19.026.063 42.719 13.888 56.898-7.148.587-14.306 1.047-21.475 1.325zm25.106 14.308c20.922 2.115 42.489.749 63.485-.707 3.053 7.478 6.152 15.243 8.418 23.168-10.309 17.427-35.534 6.855-49.999 2.724-8.557-2.444-22.028-4.66-31.527-.627 2.341-8.583 5.901-16.936 9.623-24.558zm54.014 153.809a498.302 498.302 0 0 1-21.475 1.324c-7.364.286-14.977.74-22.503.634 16.585-14.38 22.807-38.59 15.004-59.433 5.014.742 10.103.91 15.105.447-.003.045-.017.083-.019.129-.885 19.026.063 42.719 13.888 56.899zm-19.891-68.348c-18.283-1.008-38.551-8.572-44.422-27.559-2.456-7.942-2.562-16.26-1.242-24.523 5.892-3.01 11.715-4.679 18.947-4.068 10.616.896 20.399 6.033 30.499 9.013 12.228 3.607 27.012 3.286 36.4-5.497 1.34 7.827 1.525 15.754-.264 23.665-1.904 8.421-5.927 16.533-12.743 22.054-7.618 6.168-17.702 7.437-27.175 6.915z" fill="#000000" opacity="1" data-original="#000000"></path></g></svg> 