<?xml version="1.0" encoding="UTF-8"?> <svg xmlns="http://www.w3.org/2000/svg" xmlns:xlink="http://www.w3.org/1999/xlink" version="1.1" width="512" height="512" x="0" y="0" viewBox="0 0 511.997 511.997" style="enable-background:new 0 0 512 512" xml:space="preserve"><g><path d="M445.29 41.779c-24.664-10.179-51.559-.159-70.963 16.215-4.434-11.103-9.773-21.777-17.758-30.814-8.537-9.661-19.02-17.147-30.994-21.938-20.131-8.054-44.322-6.897-63.245 3.949-7.594-3.054-15.81-4.63-24.343-4.302-26.662 1.028-46.932 21.347-57.746 44.318-8.659-8.244-17.961-15.721-28.986-20.607-11.787-5.223-24.436-7.659-37.317-7.022-22.957 1.134-45.751 13.576-58.035 33.218-14.384 22.999-11.805 52.473.298 75.868 2.793 5.4 6.039 10.517 9.593 15.42-13.485 6.956-24.945 17.95-31.619 31.548-11.953 24.352-6.369 53.406 8.066 75.439 14.93 22.789 37.783 39.47 60.67 53.59 12.315 7.598 25.057 14.559 38.188 20.644 13.287 6.157 27.613 12.967 41.97 16.112 4.927 1.079 10.12 1.522 15.115.657 15.501 31.732 34.593 61.212 55.284 89.798-2.345 1.608-4.191 3.485-5.582 5.543-9.761-17.099-28.169-30.009-45.549-37.876-3.246-1.469-6.126.336-6.574 3.772a622.347 622.347 0 0 0-4.484 50.501c-.397 8.27-.708 16.541-.789 24.822-.062 6.412-1.141 14.401 1.66 20.41 6.065 13.011 22.319 4.584 31.479.449 10.945-4.94 23.051-11.077 32.728-18.977l-7.345 20.04c-1.772 4.836 6.17 7.1 7.768 2.142l8.639-26.805c.351.087.705.163 1.061.234-1.107 9.232-1.131 19.096.028 28.069.609 4.715 7.915 5.023 7.627 0a1434.289 1434.289 0 0 0-1.835-27.646 24.453 24.453 0 0 0 2.859-.306c.22-.037.433-.094.651-.137 1.855 10.481 3.653 20.974 6.302 31.289 1.181 4.599 8.556 2.565 7.107-1.959-3.25-10.149-6.694-20.216-9.448-30.504a23.819 23.819 0 0 0 2.707-1.305c4.92 9.481 9.745 19.015 15.249 28.171 2.571 4.277 8.923.509 6.66-3.893-4.938-9.606-10.569-18.826-16.095-28.104 13.899 11.909 30.416 21.595 46.828 29.462 3.811 1.827 7.308-.458 7.802-4.477 1.815-14.764 2.297-29.709 1.874-44.572-.424-14.9-3.105-29.651-3.573-44.5-.083-2.646-2.885-5.539-5.748-4.379-18.2 7.376-32.343 22.766-44.592 37.747-2.367-3.383-5.536-6.137-9.129-8.138 21.314-23.687 41.966-48.133 60.499-74.068 1.699.204 3.413.28 5.133.168 6.738-.438 13.115-3.791 18.787-7.207 11.63-7.005 22.598-15.185 32.946-23.961 39.701-33.667 81.318-86.901 67.636-142.357a72.895 72.895 0 0 0-7.23-18.203c13.929-16.818 23.4-36.495 24.687-59.061 1.567-27.466-12.796-55.694-38.922-66.477zm-130.718 386.03c6.195-4.385 12.856-8.195 19.158-12.444 2.26 12.346 2.11 25.604 2.007 37.915-.099 11.938-.986 23.799-2.278 35.645-14.202-7.313-27.029-16.123-39.958-25.714 1.864-4.572 2.345-9.699.929-14.696a24.28 24.28 0 0 0-1.358-3.629c6.646-6.274 14.054-11.806 21.5-17.077zM56.989 78.822c4.646-23.868 25.859-41.036 49.086-45.396 24.63-4.623 53.826 5.408 71.566 22.851a3.6 3.6 0 0 0 1.89 1.002c2.216 2.444 7.024 2.742 8.805-1.248 8.433-18.898 24.236-36.916 45.788-39.795 5.786-.773 11.556-.338 17.107 1.04-17.177 15.678-24.704 39.965-23.607 63.057.488 10.284 2.421 20.385 5.284 30.263-7.291-1.84-14.954-2.357-22.716-1.255-26.416 3.753-44.499 26.041-52.903 49.999-9.457-7.314-19.476-13.799-30.944-17.53-12.26-3.989-25.092-5.116-37.84-3.164a72.865 72.865 0 0 0-14.021 3.627c-13.822-18.661-22.05-40.048-17.495-63.451zm103.42 245.841c-11.896-4.561-23.502-9.855-34.779-15.782-39.315-20.666-92.503-56.415-87.915-107.46 2.177-24.218 21.52-43.468 44.179-50.184 24.027-7.121 54.096-.132 73.53 15.402.632.505 1.313.75 1.983.803 2.454 2.205 7.268 2.008 8.631-2.144 6.453-19.662 20.328-39.203 41.472-44.275 21.298-5.109 44.14 6.423 56.197 23.9 28.972 41.995 6.872 96.89-17.895 135.052a247.713 247.713 0 0 1-21.822 28.802c-7.096 8.064-15.297 18.776-25.48 22.976-11.598 4.786-27.206-2.913-38.101-7.09zm90.868-33.073a394.481 394.481 0 0 0 8.653 8.978c10.221 10.243 21.004 19.965 32.369 28.925 1.38 1.088 2.773 2.189 4.178 3.294-8.968 29.512-18.02 59.001-27.486 88.357-13.238-34.057-26.027-68.312-38.166-102.773 4.841-5.604 9.443-11.419 13.817-17.37a294.92 294.92 0 0 0 6.635-9.411zm-48.174 51.159c5.769-2.221 10.699-6.556 15.037-10.81a215.316 215.316 0 0 0 7.574-7.831c12.121 35.428 24.835 70.616 38.354 105.539-1.18.185-2.353.452-3.509.808a5.013 5.013 0 0 0-.747-1.293c-21.572-26.859-39.936-56.346-56.709-86.413zm22.669 147.128c-5.548 2.935-11.285 5.736-17.194 7.87-2.362.853-6.019 2.389-8.071.06-1.641-1.862-1.207-6.255-1.265-8.536-.664-25.952.835-51.776 4.367-77.464 7.505 3.799 14.67 8.323 21.216 13.589 7.408 5.959 13.725 13.007 20.446 19.677-2.512 8.945 1.213 19.448 8.433 26.281-9.304 6.265-17.889 13.209-27.932 18.523zm58.931-28.667c-5.56 10.86-19.583 11.418-27.897 3.335-5.672-5.514-6.571-14.232-3.494-20.589 3.036-3.591 7.528-6.066 12.847-6.293 12.133-.518 24.867 11.197 18.544 23.547zm-9.335-32.028c9.168-30.728 17.953-61.562 25.953-92.613 8.879 6.857 18.234 13.571 28.077 18.317a48.16 48.16 0 0 0 6.911 2.722c-19.93 24.198-39.829 48.379-60.941 71.574zm129.758-121.486a247.867 247.867 0 0 1-27.898 22.967c-8.771 6.201-19.229 14.723-30.108 16.452-12.391 1.969-25.792-9.134-35.423-15.721-10.516-7.192-20.581-15.028-30.179-23.406-8.124-7.091-16.83-15.251-25.135-24.217 25.473-40.463 43.856-92.722 21.095-136.92-.412-.8-.841-1.592-1.283-2.376 24.832-1.065 52.082 12.611 67.244 32.035a3.599 3.599 0 0 0 1.743 1.24c1.877 2.713 6.605 3.637 8.893-.087 10.831-17.633 28.853-33.431 50.597-33.469 21.901-.038 41.453 16.469 49.136 36.263 18.459 47.564-15.752 95.85-48.682 127.239zm48.367-149.466c-10.545-13.537-25.819-23.137-43.509-24.779-26.567-2.466-49.32 15.029-63.043 36.39-7.507-9.305-15.752-17.934-26.044-24.219-11.004-6.719-23.226-10.787-36.079-11.84-5.184-.424-10.431-.254-15.623.447-6.904-8.471-15.674-15.362-25.493-19.832-9.084-27.713-10.904-56.949 6.245-80.86 14.171-19.759 40.61-26.522 63.541-20.803 24.315 6.064 46.672 27.352 55.527 50.602.288.755.75 1.312 1.301 1.699.995 3.146 5.242 5.421 8.524 2.536 15.543-13.662 37.418-23.453 58.209-17.087 20.942 6.412 34.766 27.945 36.28 49.123 1.605 22.453-6.633 42.02-19.836 58.623z" fill="#000000" opacity="1" data-original="#000000"></path></g></svg> 