<?xml version="1.0" encoding="UTF-8"?> <svg xmlns="http://www.w3.org/2000/svg" xmlns:xlink="http://www.w3.org/1999/xlink" version="1.1" width="512" height="512" x="0" y="0" viewBox="0 0 512.001 512.001" style="enable-background:new 0 0 512 512" xml:space="preserve" class=""><g><path d="M499.837 190.078c.575-1.761.182-3.747-1.812-5.374-13.484-10.997-27.277-21.579-40.559-32.832-11.775-9.978-23.237-20.45-35.715-29.552 1.087-33.887 2.241-67.777 4.123-101.629.387-6.952.379-14.815-6.67-18.606C412.428-1.559 402.165.634 394.83.86c-19.668.607-39.335 1.304-59.006 1.797-38.958.977-77.918 1.919-116.877 2.879-21.559.531-43.116 1.077-64.679 1.44-22.25.374-44.742 1.52-66.948-.198-3.122-.241-5.886 2.873-5.844 5.844.151 10.594 1.878 21.252 3.026 31.784 1.155 10.604 2.451 21.192 3.703 31.784 1.238 10.479 2.45 20.962 3.681 31.443-8.57 6.711-16.241 14.453-24.174 21.913L41.554 154.14c-12.915 12.143-26.219 17.891-29.504 37.678-1.894 11.408.918 21.864 2.665 32.953 1.57 9.968.119 20.269.402 30.371 1.45 51.755 3.234 103.5 5.208 155.237l2.08 54.512c.304 7.975.301 16.024.967 23.977.58 6.925 2.303 13.723 8.062 18.134 5.315 4.071 11.942 4.829 18.443 4.948 8.679.159 17.382-.099 26.063-.171 18.207-.152 36.411-.204 54.618-.199 72.066.021 144.131.059 216.197.142 18.206.021 36.412-.016 54.618-.038 17.573-.021 35.399.815 52.948-.17 15.03-.843 25.764-7.948 27.892-23.516 2.351-17.198 2.321-34.998 3.351-52.318 4.813-80.949 10.618-161.851 15.01-242.823.054-1.009-.229-1.959-.737-2.779zm-80.427 5.637 1.849-57.963.238-7.468c8.781 10.336 18.749 19.667 28.742 28.815 12.087 11.063 24.314 22.162 37.166 32.35a13121.951 13121.951 0 0 0-69.471 48.228c1.758-14.48 1.019-29.653 1.476-43.962zM144.057 15.882c18.534-.412 37.065-.767 55.602-1.034l112.338-1.618c18.155-.262 36.31-.47 54.467-.618l27.233-.222c4.538-.037 9.078-.089 13.616-.111 1.255-.006 4.562-.499 5.751.165 2.295 1.282 1.838 3.675 1.859 5.975.334 37.06-2.34 74.364-3.98 111.379l-2.721 61.372-1.411 31.822c-.369 8.309-.746 16.303.107 24.407-4.428 3.105-8.846 6.224-13.269 9.336 2.871-58.407 6.196-116.806 8.548-175.236.083-2.058-1.89-4.099-3.975-3.976-11.854.699-23.622-5.704-28.221-16.946-4.504-11.011-.885-23.734 7.709-31.614 2.85-2.613.718-8.158-3.266-7.884-77.504 5.319-155.034 10.501-232.789 8.079-3.26-.102-4.617 3.391-3.431 5.979 8.615 18.794-3.037 41.255-24.556 41.655-2.091.039-4.321 1.865-4.129 4.129 2.839 33.617 7.642 67.209 11.588 100.715 3.424 29.075 6.952 58.154 11.23 87.118-4.659-3.347-9.317-6.692-13.975-10.04-3.562-40.431-7.427-80.826-11.332-121.226-2.05-21.205-4.42-42.382-6.649-63.569-1.95-18.532-2.913-37.72-6.159-56.162 16.533-1.476 33.24-1.507 49.815-1.875zm3.559 21.167c72.229-.688 144.694-.691 216.776-5.976-5.618 9.848-6.751 22.11-2.088 32.747 5.488 12.519 18.243 20.789 31.698 21.617-3.733 59.28-6.5 118.63-9.787 177.936-26.745 18.866-53.393 37.863-79.889 57.047a5872.6 5872.6 0 0 0-49.929 36.569c-38.577-28.294-77.451-56.202-116.316-84.119-2.412-31.22-5.708-62.378-9.176-93.496-3.522-31.606-6.276-63.444-10.63-94.956 21.768-4.269 36.39-26.109 29.341-47.369zM29.774 176.477c6.498-8.92 18.211-16.024 26.409-23.565 12.223-11.246 25.477-22.039 37.034-34.087.834 6.981 1.679 13.961 2.56 20.936 4.772 37.775 9.62 75.533 14.698 113.267a16035.705 16035.705 0 0 1-38.793-27.982c-9.641-6.981-41.615-22.726-44.372-38.724-.569-3.297.103-6.603 2.464-9.845zm7.375 317.066c-2.15-5.104-1.368-12.48-1.618-17.296l-2.718-52.24c-2.811-54.011-5.772-108-9.085-161.974 1.894-18.309 2.194-37.58.169-56.198 26.826 19.839 54.31 38.848 81.436 58.258l93.53 66.928c7.884 5.641 15.72 11.351 23.559 17.056-59.812 50.624-121.703 98.556-184.805 144.997-.192.14-.34.301-.468.469zm409.738 5.12c-9.103.041-18.206.062-27.309.093l-52.343.179c-68.273.234-136.546.746-204.818 1.081-34.898.171-69.788.272-104.685.141-5.621-.021-13.192.91-17.879-2.851-.166-.133-.306-.289-.459-.432.112-.05.225-.103.34-.177 66.68-43.063 130.061-91.413 190.265-143.12 7.144 5.186 14.299 10.357 21.512 15.446 1.492 1.053 4.31 1.126 5.792 0a6326.893 6326.893 0 0 1 32.817-24.747 8821.881 8821.881 0 0 1 87.429 74.648c14.957 12.944 29.759 26.062 44.523 39.225a3141.881 3141.881 0 0 1 22.057 19.853c6.494 5.901 12.839 13.116 20.087 18.241-4.815 3.037-11.974 2.396-17.329 2.42zm28.759-99.294c-1.164 17.402-2.404 34.798-3.62 52.196l-1.744 24.963c-.197 2.821-.177 6.266-.639 9.561-5.358-5.762-11.919-10.797-17.62-15.978a3162.57 3162.57 0 0 0-22.877-20.585c-14.774-13.164-29.76-26.093-44.831-38.915-28.73-24.445-58.209-48.012-88.306-70.748 1.822 1.376 42.016-31.05 46.571-34.384 16.574-12.132 33.181-24.218 49.751-36.357 31.582-23.137 63.66-44.073 96.414-65.531-4.798 65.224-8.734 130.525-13.099 195.778z" fill="#000000" opacity="1" data-original="#000000"></path><path d="M330.598 149.308c-7.097-14.431-21.94-22.329-37.847-19.753-16.155 2.615-28.05 13.874-38.392 25.801a37.265 37.265 0 0 0-1.841-1.909c-7.806-8.74-17.828-15.223-29.719-17.119-13.499-2.152-27.971 2.826-36.599 13.588-21.685 27.05 9.023 58.862 29.422 75.152 6.495 5.187 13.304 9.89 20.403 14.21 7.098 4.319 14.518 8.756 22.784 10.368 17.442 3.403 29.822-9.617 41.579-20.376 21.392-19.576 45.171-49.545 30.21-79.962zm-28.48 64.753c-8.689 8.137-19.09 19.089-30.703 22.744-13.214 4.159-27.05-4.038-37.923-10.771-11.184-6.925-22.194-15.13-31.023-24.945-8.23-9.148-16.305-21.624-13.546-34.521 2.624-12.262 15.44-20.171 27.446-20.541 3.571-.11 7.063.315 10.455 1.142a42.177 42.177 0 0 1 3.844 1.753c7.939 4.131 13.11 10.158 18.708 16.916.346.419.734.721 1.136.971 1.51 1.426 3.83 1.825 5.646-.222 8.719-9.829 17.756-20.411 30.216-25.518 11.465-4.7 23.984-3.264 32.268 6.444 18.655 21.858.611 50.501-16.524 66.548zM355.409 73.251c-8.689-15.944-29.629-12.529-40.074-.454-5.909 6.831-9.462 16.208-16.916 21.597-6.29 4.548-14.821 5.453-22.116 3.108-8.034-2.582-15.401-9.703-15.428-18.629-.036-11.608 15.193-16.235 18.415-3.744.669 2.591 3.973 2.143 4.822 0 2.188-5.52-.976-11.81-5.525-15.157-5.296-3.896-12.121-3.477-17.546-.011a20.077 20.077 0 0 0-5.105 4.638c-1.91-3.34-4.761-6.2-8.624-8.172-14.733-7.517-30.712 7.2-24.116 22.389 1.819 4.19 8.438 1.178 7.263-3.062-2.018-7.279 5.699-13.24 12.492-10.934 8.69 2.949 10.139 13.016 6.152 20.254-8.803 15.981-32.934 13.62-45.985 5.099-11.83-7.725-19.261-20.791-35.26-18.822-12.342 1.519-23.215 11.267-24.021 24.016-.446 7.018 2.553 14.337 8.829 17.929 6.215 3.557 14.479 2.665 19.187-2.858 4.661-5.467-3.367-13.424-7.893-7.893-2.363 2.889-6.407 3.035-8.784-.055-2.321-3.017-2.216-7.691-1.02-11.105 2.349-6.703 9.57-11.417 16.545-11.697 8.531-.341 14.386 6.566 20.099 11.873 5.756 5.347 12.269 9.619 19.833 11.936 14.665 4.492 33.416 1.534 42.987-11.368.47-.633.905-1.289 1.314-1.958a28.563 28.563 0 0 0 2.971 4.614c7.53 9.507 20.448 13.449 32.215 11.559 14.773-2.372 20.965-13.911 29.245-24.856 5.273-6.97 14.852-14.167 23.918-9.615 3.937 1.977 8.125 7.499 5.315 11.934-.86 1.357-3.231 3.021-5.236 3.025-2.307-6.532-14.12-5.689-13.985 2.608l.031 1.874c.056 3.469 2.244 5.662 5.247 6.891 14.886 6.094 27.85-11.933 20.754-24.954zM245.174 284.276c-4.548-12.481-18.87-15.76-30.658-14.085-13.893 1.974-29.673 10.317-42.043-.524-5.25-4.602-7.887-12.304-5.666-19.091 2.434-7.436 11.228-12.171 18.475-8.457 5.042 2.584 8.288-5.627 2.958-7.018-10.315-2.692-21.76 1.622-26.456 11.523-5.106 10.763-1.503 23.57 7.622 30.9 11.444 9.192 24.835 7.086 38.305 4.944 7.154-1.138 15.984-2.189 22.148 2.538 3.972 3.046 6.572 10.47-.18 11.941-7.324 1.596-4.132 12.343 3.062 11.107 10.612-1.822 15.932-14.181 12.433-23.778zM352.36 232.943c-8.621-10.576-26.024-6.491-26.561 7.971-.303 8.161 13.374 6.927 11.313-1.531-.968-3.972 4.465-4.507 6.929-3.103 3.181 1.813 4.563 5.69 4.642 9.16.143 6.344-3.178 12.625-7.323 17.247-7.846 8.749-19.855 12.907-31.375 10.586-11.771-2.371-23.01-5.095-32.825 3.876-8.635 7.892-9.911 20.34-4.224 30.264 2.237 3.904 9.314 1.25 7.508-3.165-3.225-7.885-1.449-16.9 6.345-21.264 7.73-4.328 16.695-.143 24.838.584 13.078 1.168 26.45-4.617 35.092-14.401 8.134-9.209 14.446-25.422 5.641-36.224z" fill="#000000" opacity="1" data-original="#000000"></path></g></svg> 