<?xml version="1.0" encoding="UTF-8"?> <svg xmlns="http://www.w3.org/2000/svg" width="133" height="67" viewBox="0 0 133 67" fill="none"><path d="M6.21599 51H0.23999V0.743999H6.21599V51Z" fill="#272727"></path><path d="M23.4836 14.856C35.1476 14.856 39.1796 21.336 39.1796 31.416V51H33.1316V48.264C6.49161 61.728 0.227615 35.088 34.7876 24.864C34.4276 19.896 32.2676 16.008 25.9316 16.008C19.5956 16.008 16.5716 21.84 15.8516 25.872C15.5636 22.848 14.5556 20.832 11.8196 19.32C14.5556 16.368 19.5956 14.856 23.4836 14.856ZM33.1316 43.008C33.1316 39.768 35.1476 31.488 34.8596 25.44C6.92361 32.424 16.5716 66.12 33.1316 43.008Z" fill="#272727"></path><path d="M64.9331 15.864H72.9971L60.1091 47.76L61.4051 51H54.9251L40.7411 15.864H47.2211L59.8211 47.112L66.9491 29.544C69.3971 22.848 69.3971 20.328 64.9331 15.864Z" fill="#272727"></path><path d="M82.5754 51H76.5994V0.743999H82.5754V51Z" fill="#272727"></path><path d="M118.419 15.864L105.531 47.76L106.827 51H104.163L102.075 54.888C99.699 58.56 93.147 69.648 83.643 66.048C80.043 64.608 77.811 61.8 77.307 59.496C79.611 59.064 82.131 57.552 83.499 54.96C82.635 58.92 83.067 62.88 86.163 64.536C93.003 68.28 100.347 57.624 103.587 51H100.347L86.091 15.864H92.643L105.243 47.112L112.371 29.544C114.747 22.848 114.819 20.328 110.355 15.864H118.419Z" fill="#272727"></path><path d="M126.285 51.3154C126.203 51.3915 126.095 51.4337 125.983 51.4337C125.871 51.4337 125.764 51.3915 125.682 51.3154C125.007 50.5 116.481 42.6087 119.74 38.8229C121.804 36.592 124.672 39.4242 125.709 41.0896C125.741 41.1317 125.783 41.1657 125.83 41.1892C125.878 41.2126 125.93 41.2248 125.983 41.2248C126.036 41.2248 126.089 41.2126 126.136 41.1892C126.184 41.1657 126.225 41.1317 126.258 41.0896C126.983 40.0411 128.439 38.2504 130.048 38.0209C130.449 37.971 130.855 38.0177 131.234 38.1572C131.613 38.2966 131.954 38.5248 132.226 38.8226C132.485 39.0861 132.687 39.3999 132.82 39.7446C132.953 40.0894 133.013 40.4577 132.998 40.8267C132.972 44.6974 126.97 50.6497 126.285 51.3154Z" fill="#272727"></path></svg> 