<?xml version="1.0" encoding="UTF-8"?> <svg xmlns="http://www.w3.org/2000/svg" xmlns:xlink="http://www.w3.org/1999/xlink" version="1.1" width="512" height="512" x="0" y="0" viewBox="0 0 512 512" style="enable-background:new 0 0 512 512" xml:space="preserve"><g><path d="M278.356 326.643c.835-.464 3.056-1.698 11.817-15.714 9.099-14.559 8.904-17.086 8.788-18.597-.126-1.631-.334-4.148-14.213-16.784.686.345 5.911 3.405 6.698 3.85h.002l.003.002 53.21 30.71c.266.124.523.266.797.37l.004.003c8.094 3.2 17.273 2.927 27.916 2.607 8.353-.265 16.82-.429 25.182.669h.006c7.19.921 13.967 2.676 20.62 5.394 2.49 1.068 5.535-.202 6.532-2.723a5 5 0 0 0-2.719-6.528 111.812 111.812 0 0 0-6.914-2.513c1.258-.728 2.441-1.578 3.6-2.453 13.564-9.692 21.163-30.381 22.21-47.886.412-4.191.424-12.139.134-14.48a5 5 0 0 0-2.604-3.95c-20.652-6.892-27.8-37.392-27.688-37.668a5 5 0 0 0-4.584-3.982c-25.056-1.572-54.236-23.984-54.526-24.21a5.002 5.002 0 0 0-6.046-.066c-22.628 16.788-49.074 17.065-49.331 17.066-2.757-.089-4.356 2.363-5.966 4.237-3.066 3.72-5.873 7.736-7.975 12.095l-12.08.859c-.004-.18-.03-.36-.042-.54a.344.344 0 0 1-.001-.007v-.006c-.259-2.224-2.006-3.623-3.958-4.438a52.224 52.224 0 0 0-5.36-2.32c-14.377-5.27-28.831-2.836-43.059 7.293-1.332.867-1.86 2.45-2.373 3.86l-2.987.593-7.153 1.42c.009.001-125.61 24.962-125.61 24.963a5.001 5.001 0 0 0-3.93 5.878c.527 2.727 3.238 4.476 5.88 3.93l130.376-25.908c-4.684 18.283-3.903 36.693 2.378 54.933l-37.27 7.407-9.836-2.33a4.938 4.938 0 0 0-1.78-.095l-85.47 10.795a5.001 5.001 0 0 0 1.254 9.922l84.572-10.682 59.247 14.029c-3.593 10.637-8.983 32.686 5.35 39.055 3.39 1.385 8.591 3.555 13.667 4.428 5.74-.078 6.919-8.154 1.343-9.817-4.489-1.253-8.172-2.515-10.948-3.75-7.065-3.778-1.734-21.157.194-27.04 2.07 8.297 7.098 15.79 14.019 20.816 1.702 1.484 22.815 13.346 25.233 14.83-8.793 14.905-26.458 22.626-43.647 18.559l-66.526-15.753a4.958 4.958 0 0 0-1.78-.096l-48.621 6.14a5.001 5.001 0 0 0-3.982 3.021c-11.094 26.35-31.047 38.16-31.236 38.27a5 5 0 0 0-2.411 3.34c-.025.12-2.537 12.078-12.006 24.357-12.7 16.469-31.18 25.242-54.932 26.075a5 5 0 0 0 .173 9.997c45.368-2.128 67.113-27.944 76.027-56.274 5.53-3.675 21.849-15.98 32.434-39.219l44.91-5.672 65.646 15.544c23.39 5.546 47.606-6.426 57.225-28.447.52-1.31.42-2.814-.206-4.068-.455-.842-1.105-1.572-1.943-2.054-3.775-2.449-28.223-15.565-30.863-18.609 15.121 6.501 21.48 9.432 25.128 7.361zm-10.93-64.17c-1.447.17-2.88.42-4.294.758-2.902-13.02-1.64-35.97 2.64-45.817l7.416-.42c-1.676 14.546 2.622 26.473 12.054 29.092 3.395 1.073 8.255 1.609 14.689 1.609 8.77.103 24.832-1.52 34.049-2.846-6.44 15.8-21.605 25.225-38.83 25.139l-4.814-2.785c-6.88-3.994-14.993-5.684-22.875-4.734-.012 0-.023.003-.035.004zm-15.567 5.512c-5.516 3.455-10.029 8.435-13.055 14.19-4.298-1.16-8.655-3.235-12.994-6.155-7.732-20.5-7.716-41.293.013-61.778 5.977-4.015 12.85-6.983 20.113-7.24 4.302-.165 8.619.612 12.665 2.097-.356.685-.685 1.223-.92 1.903-6.495 13.019-7.82 39.59-4.008 55.898-.61.355-1.21.722-1.814 1.085zm31.428-51.563 47.75-2.703c2.769-.203 5.22 1.938 5.36 4.738.167 4.982.882 10.987.263 15.918-16.248 2.444-40.233 4.76-48.405 2.176-5.648-1.784-5.907-12.657-4.968-20.129zm66.216-33.54c8.1 5.787 31.057 20.908 53.352 23.72 4.8 16.013 13.263 31.975 29.352 39.811.058 2.464.03 6.306-.397 10.867-7.967-3.681-26.224-12.255-67.668-31.974a5 5 0 0 0-4.297 9.03c37.781 17.976 61.37 29.108 70.395 33.222-3.19 14.71-11.277 31.555-31.305 36.17-8.586-1.023-17.263-.923-25.884-.636-9.404.17-16.345.77-23.746-1.847l-39.87-23.01c9.306-2.383 17.722-7.411 24.352-14.649l53.674 29.168c2.38 1.306 5.455.443 6.781-2.006a5.001 5.001 0 0 0-2.006-6.781l-52.395-28.472c5.76-9.382 7.853-20.643 6.85-31.572l-.303-5.977c-.178-3.955-1.987-7.705-4.924-10.37h-.001c-2.918-2.644-6.87-4.049-10.804-3.85-.147.002-35.31 1.708-35.473 1.712a63.59 63.59 0 0 1 4.383-5.755c7.126-.392 29.226-2.743 49.934-16.802zM222.005 285.482c4.387 2.749 8.641 4.689 13.405 6.14a37.137 37.137 0 0 0-.78 5.766l-33.098-7.837zm23.063 19.021a27.038 27.038 0 0 1 1.245-14.687c3.215-8.677 10.978-15.288 20.065-17.067 9.227 7.882 19.25 17.048 22.227 20.66-2.133 4.947-10.794 18.732-14.53 23.531-4.955-1.566-17.687-7.12-29.007-12.437z" fill="#000000" opacity="1" data-original="#000000"></path><path d="M79.991 184.378c-6.179 2.416-2.926 11.448 3.34 9.426l93.307-33.064c4.051-1.35 9.506-3.993 13.87-3.096l47.346 6.79-8.136 11.826a5 5 0 1 0 8.238 5.668l12.701-18.46a15.055 15.055 0 0 1 5.754-4.968l87.555-42.928a15.081 15.081 0 0 1 11.923-.557l126.315 47.871c.727.28 4.89 2.58 15.498 20.429a5 5 0 1 0 8.596-5.11c-11.447-19.26-16.97-23.291-20.526-24.66l-126.34-47.88a25.107 25.107 0 0 0-19.864.926l-87.558 42.93a25.038 25.038 0 0 0-7.598 5.75l-52.484-7.525a25.083 25.083 0 0 0-11.898 1.182l-14.761 5.231-85.278 30.22zM10.002 196.54c.639 0 1.287-.123 1.914-.383l95.734-39.707a14.98 14.98 0 0 1 8.189-.945l10.23 1.689a4.994 4.994 0 0 0 5.749-4.12 5 5 0 0 0-4.12-5.746l-10.231-1.69a24.967 24.967 0 0 0-13.648 1.575L8.084 186.92c-4.998 2.093-3.493 9.62 1.918 9.62zM256 72.198a5 5 0 0 0 5-5v-31.78a5 5 0 1 0-10 0v31.78a5 5 0 0 0 5 5zM206.023 70.135c4.053 5.232 11.81-.414 8.091-5.874l-18.668-25.718c-4.035-5.223-11.814.398-8.091 5.874l18.668 25.718zM124.08 68.737l26.312 17.823c.858.582 1.834.86 2.798.86 4.837.036 6.892-6.389 2.809-9.14l-26.311-17.823a5 5 0 1 0-5.608 8.28zM298.994 71.245a5 5 0 0 0 6.983-1.11l18.669-25.718a5 5 0 1 0-8.092-5.874L297.886 64.26a5 5 0 0 0 1.108 6.984zM358.81 87.42c.964 0 1.94-.278 2.798-.86l26.312-17.823c5.353-3.865-.017-11.821-5.608-8.28l-26.311 17.824c-4.075 2.743-2.036 9.178 2.809 9.14zM256 439.802a5 5 0 0 0-5 5v31.78a5 5 0 1 0 10 0v-31.78a5 5 0 0 0-5-5zM213.006 440.755a5.003 5.003 0 0 0-6.985 1.11l-18.667 25.718a5.001 5.001 0 0 0 8.093 5.875l18.668-25.719a5.001 5.001 0 0 0-1.11-6.984zM150.39 425.44l-26.31 17.824c-5.363 3.882.037 11.819 5.609 8.279L156 433.719a5 5 0 0 0-5.61-8.28zM305.978 441.864c-4.038-5.22-11.813.398-8.093 5.875l18.668 25.72a4.993 4.993 0 0 0 4.05 2.062c3.969.087 6.473-4.74 4.043-7.938l-18.668-25.719zM387.92 443.264l-26.31-17.825c-5.577-3.535-10.972 4.399-5.61 8.28l26.311 17.824c.86.582 1.835.861 2.8.861 4.838.036 6.89-6.39 2.81-9.14zM503.875 435.495c-25.045-10.13-60.584-21.904-87.628-20.427-28.877 1.581-44.294-14.054-59.22-29.17-6.054-6.132-11.772-11.924-18.215-16.396-.707-.484-34.28-19.778-34.913-20.176-5.792-3.127-10.64 5.164-5 8.66l34.377 19.847c25.82 20.037 39.545 49.352 83.515 47.22 26.036-1.686 60.218 11.01 85.207 20.079 5.376-.002 6.973-7.54 1.877-9.637z" fill="#000000" opacity="1" data-original="#000000"></path></g></svg> 