<?xml version="1.0" encoding="UTF-8"?> <svg xmlns="http://www.w3.org/2000/svg" xmlns:xlink="http://www.w3.org/1999/xlink" version="1.1" width="512" height="512" x="0" y="0" viewBox="0 0 3000 3000" style="enable-background:new 0 0 512 512" xml:space="preserve"><g><path d="M1529.877 703.359c-19.693 14.911-9.518 36.659-9.093 39.358 15.956 58.347 118.315 424.946 263.958 772.934 127.609 304.23 327.279 693.366 549.422 669.391l126.211 471.029c-131.743 33.491-437.848 159.46-260.649 235.848 86.555 18.911 206.219-1.783 341.132-35.54 491.813-128.678 437.48-334.779-23.887-215.472l-126.229-471.1c76.154-34.277 124.471-119.66 148.582-237.938 44.653 28.612 96.835 68.698 115.157 56.482 110.74-61.884 233.805-142.418 271.088-277.17 60.178-221.64-177.915-280.875-282.821-166.53-26.631-28.5-58.992-45.299-92.133-52.564-16.876-189.357-44.175-383.611-84.722-567.421-8.658-16.22-31.349-19.879-45.439-7.019-24.563 16.069 17.59 137.6 15.663 158.436-271.154 161.159-500.598-130.259-709.271 125.9-69.311-196.025-119.098-366.182-140.279-441.334 281.256 24.012 526.934-44.045 739.635-197.285 40.312 153.207 31.886 178.522 65.945 180.579 36.398-3.394 31.939-30.858 21.685-67.907a6984.215 6984.215 0 0 0-25.009-103.882c-15.319-52.168-7.858-50.162-23.799-78.43-10.936-11.921-31.185-10.01-48.316-12.91-280.156-31.374-540.675 39.926-786.831 222.545zm945.662 2009.309c-118.91 37.985-197.639 62.026-265.02 121.148 131.453 35.649 533.993-79.597 611.707-163.904-86.734-19.178-192.651 6.048-290.086 27.592 27.971 66.868-49.885 82.871-56.601 15.164zM1658.9 1932.557c-64.93-1.994-133.355 21.777-184.101 80.912-101.319-118.17-273.844-94.966-340.579-8.198-93.086 119.899-12.04 318.396 98.124 415.621 64.704 60.877 149.81 117.083 225.921 159.412 14.462 9.25 28.453 3.721 40.952-4.416 99.924-56.672 206.774-129.727 272.26-213.58 139.894-188.351 108.077-417.251-112.577-429.751zM598.172 135.703c-25.282 5.492-24.989 45.201-45.791 120.738-54.949-9.855-118.635 4.307-164.977 53.895-48.859-50.669-110.433-65.878-175.756-51.628-114.979 28.605-143.885 142.5-91.319 261.216 49.517 111.437 158.332 178.166 255.34 234.114 29.613 9.454 52.691-20.705 79.165-32.585-35.818 226.297-62.885 308.448 8.822 278.602 18.642-16.562 11.631-46.885 17.734-69.816 6.629-48.354 13.839-95.443 21.625-142.621 301.684 157.308 517.77-138.04 695.918 130.787l175.424-548.555c-499.339 1765.513-978.896 1660.33-922.964 841.157-4.397-17.861-25.475-26.991-42.305-18.008-30.041 8.601-14.862 161.82-18.61 179.136 3.042 160.844 25.827 383.956 168.353 447.95L432.614 2291.12c-130.91-36.869-458.852-80.85-343.652 73.93 65.194 59.497 179.853 101.725 313.277 139.805 489.325 134.346 546.911-70.868 86.976-198.564l126.211-471.029c276.032 29.275 520.134-576.261 642.478-908.343 106.265-297.35 170.668-522.87 173.966-551.922-.362-4.526-2.031-9.97-5.173-14.351-245.693-235.761-525.904-312.034-828.525-224.943zM1648.482 1990.6c-62.774 1.91-113.121 30.834-153.304 93.946-50.712 37.639-49.745-58.529-140.494-84.468-57.028-19.63-119.089-7.675-157.86 24.406-83.524 70.055-39.975 211.85 29.206 304.244 56.795 73.225 158.634 142.471 248.763 193.663 417.853-224.204 381.824-534.953 173.689-531.791zM417.451 2347.723c-121.975-26.568-202.173-45.099-290.086-27.598 95.899 96.537 502.157 198.075 611.701 163.91-65.353-59.916-170.277-91.24-265.02-121.148-9.184 71.895-84.641 46.828-56.595-15.164zm2029.125-1210.325c-301.686 157.319-517.772-138.047-695.918 130.793l-175.43-548.555c1.924 1.374 350.963 1322.631 716.873 1405.833 127.326 19.154 176.723-118.156 194.87-232.933-174.437-134.187-191.203-379.396 4.588-403.729-9.663-116.231-26.028-236.647-44.983-351.409zm324.006 702.61c56.784-46.027 94.903-108.613 104.617-171.438 21.838-137.597-143.624-160.337-204.681-64.557-6.297 11.568-15.553 18.22-27.77 18.453-27.343-.151-39.289-45.822-66.373-57.236-45.866-29.393-103.443-23.081-136.813 4.438-41.626 35.467-34.733 97.472-17.628 143.355 37.113 100.946 124.893 157.901 220.802 214.87 42.857-24.554 88.654-54.585 127.846-87.885zm-804.322-472.617c36.252 2.38 32.415 51.264 0 51.996-36.251-2.376-32.417-51.261 0-51.996zm-81.996-58.495c53.736 3.141 49.518 76.722 0 77.994-53.734-3.144-49.504-76.721 0-77.994zm97.494-64.992c62.571 3.63 57.998 89.422 0 90.99-62.557-3.63-57.997-89.418 0-90.99zm-977.432-84.498c36.252 2.376 32.417 51.264 0 51.996-36.252-2.376-32.416-51.264 0-51.996zm-81.99-58.494c53.733 3.144 49.504 76.722 0 77.994-53.736-3.141-49.518-76.722 0-77.994zm-463.295 26.238c22.7-120.67-43.74-86.295-49.613-72.067-36.005 137.427 51.397 101.167 49.613 72.067zm560.783-91.236c62.568 3.633 58 89.427 0 90.996-62.559-3.63-57.993-89.422 0-90.996zm1430.379-195.609c-9.61-91.484-61.909-59.029-65.354-36.597 2.265 110.918 74.299 70.051 65.354 36.597zM621.656 220.436a6441.031 6441.031 0 0 0-13.811 55.887c146.258 91.834 47.555 310.883-85.096 398.449a6291.461 6291.461 0 0 0-9.281 51.533c271.166 161.162 500.586-130.267 709.277 125.9 67.746-191.607 116.836-358.477 138.791-436.084-291.766 56.168-538.745-8.226-739.88-195.685zm1642.928 314.46c-222.803-15.557-434.572 39.574-634.641 170.051 238.489 12.967 449.467-45.17 634.641-170.051zM515.238 605.695c56.783-46.028 94.906-108.609 104.617-171.437 21.839-137.598-143.625-160.346-204.681-64.557-6.296 11.569-15.553 18.215-27.77 18.447-27.346-.146-39.29-45.819-66.373-57.234-45.866-29.395-103.443-23.082-136.813 4.441-41.623 35.461-34.724 97.476-17.626 143.355 37.111 100.944 124.895 157.905 220.8 214.864 42.867-24.544 88.649-54.584 127.846-87.879zm824.567-245.132C1133.742 185.725 908.602 123.908 663.58 179.367c184.43 170.531 410.303 229.576 676.225 181.196z" class="st0" style="fill-rule:evenodd;clip-rule:evenodd" fill="#000000" opacity="1" data-original="#000000"></path></g></svg> 